<svg width="100" height="100" viewBox="0 0 100 100" fill="none" xmlns="http://www.w3.org/2000/svg">
<path fill-rule="evenodd" clip-rule="evenodd" d="M100 50C100 77.6142 77.6142 100 50 100C22.3858 100 0 77.6142 0 50C0 22.3858 22.3858 0 50 0C77.6142 0 100 22.3858 100 50ZM90 50C90 72.0914 72.0914 90 50 90C27.9086 90 10 72.0914 10 50C10 27.9086 27.9086 10 50 10C72.0914 10 90 27.9086 90 50ZM78 50C78 65.464 65.464 78 50 78C34.536 78 22 65.464 22 50C22 34.536 34.536 22 50 22C52.4254 22 54.7788 22.3084 57.0231 22.8881C50.8938 25.0437 46.5 30.8837 46.5 37.75C46.5 46.4485 53.5515 53.5 62.25 53.5C69.1163 53.5 74.9563 49.1062 77.1119 42.9769C77.6916 45.2212 78 47.5746 78 50Z" fill="#D4D4D4"/>
</svg>
