<svg width="100" height="100" viewBox="0 0 100 100" fill="none" xmlns="http://www.w3.org/2000/svg">
<path fill-rule="evenodd" clip-rule="evenodd" d="M100 50C100 77.6142 77.6142 100 50 100C22.3858 100 0 77.6142 0 50C0 22.3858 22.3858 0 50 0C77.6142 0 100 22.3858 100 50ZM90 50C90 72.0914 72.0914 90 50 90C27.9086 90 10 72.0914 10 50C10 27.9086 27.9086 10 50 10C72.0914 10 90 27.9086 90 50ZM82 50C82 67.6731 67.6731 82 50 82C32.3269 82 18 67.6731 18 50C18 32.3269 32.3269 18 50 18C52.7719 18 55.4615 18.3524 58.0264 19.0149C51.0214 21.4785 46 28.1528 46 36C46 45.9411 54.0589 54 64 54C71.8472 54 78.5215 48.9786 80.9851 41.9736C81.6476 44.5385 82 47.2281 82 50Z" fill="#D4D4D4"/>
</svg>
